<svg xmlns="http://www.w3.org/2000/svg" viewBox="0 0 1280 420" width="1280" height="420" role="img" aria-label="Youtube to Context — cinematic context compiler">
  <title>Youtube to Context — cinematic context compiler</title>

  <!-- Stock -->
  <rect width="1280" height="420" fill="#e8e2d4"/>

  <!-- The page -->
  <rect x="22" y="22" width="1236" height="376" fill="none" stroke="#c5ba9f" stroke-width="1"/>

  <!-- Viewfinder crop brackets -->
  <path d="M22 56 V22 H56" fill="none" stroke="#c5341b" stroke-width="2"/>
  <path d="M1258 364 V398 H1224" fill="none" stroke="#c5341b" stroke-width="2"/>

  <!-- Imprint — a play head resolving into context lines -->
  <rect x="74" y="74" width="40" height="40" fill="none" stroke="#211c17" stroke-width="1.4"/>
  <path d="M83 83 L83 105 L97 94 Z" fill="#c5341b"/>
  <g stroke="#211c17" stroke-width="2.4" stroke-linecap="square">
    <line x1="100" y1="86" x2="108" y2="86"/>
    <line x1="100" y1="94" x2="105" y2="94"/>
    <line x1="100" y1="102" x2="108" y2="102"/>
  </g>
  <text x="128" y="89" font-family="'Courier New', monospace" font-size="11" letter-spacing="3" fill="#9a9081">REF</text>
  <text x="128" y="107" font-family="'Courier New', monospace" font-size="11" letter-spacing="3" fill="#9a9081">001</text>

  <!-- Wordmark -->
  <text x="70" y="210" font-family="Georgia, 'Times New Roman', serif" font-size="58" font-weight="bold" fill="#211c17">Youtube to Context</text>
  <rect x="74" y="232" width="96" height="6" fill="#c5341b"/>
  <text x="76" y="272" font-family="'Courier New', monospace" font-size="16" letter-spacing="6" fill="#6d6457">CINEMATIC CONTEXT COMPILER</text>

  <!-- Selected frames — a contact-sheet of plates -->
  <g>
    <rect x="660" y="88" width="180" height="104" fill="#100e0b"/>
    <rect x="856" y="88" width="180" height="104" fill="#100e0b"/>
    <rect x="1052" y="88" width="180" height="104" fill="#100e0b"/>

    <!-- crop brackets -->
    <g stroke="#c5341b" stroke-width="1.5" fill="none">
      <path d="M668 106 V96 H678"/>
      <path d="M832 174 V184 H822"/>
      <path d="M864 106 V96 H874"/>
      <path d="M1028 174 V184 H1018"/>
      <path d="M1060 106 V96 H1070"/>
      <path d="M1224 174 V184 H1214"/>
    </g>

    <!-- a scanner rule on the middle plate -->
    <rect x="856" y="132" width="180" height="2" fill="#c5341b" opacity="0.85"/>

    <text x="672" y="180" font-family="'Courier New', monospace" font-size="11" fill="#b7ad9a">00:00:04</text>
    <text x="868" y="180" font-family="'Courier New', monospace" font-size="11" fill="#b7ad9a">00:00:09</text>
    <text x="1064" y="180" font-family="'Courier New', monospace" font-size="11" fill="#b7ad9a">00:00:15</text>

    <text x="662" y="214" font-family="'Courier New', monospace" font-size="10.5" letter-spacing="3" fill="#9a9081">PLATES · DENSITY SAMPLED · SALIENCE SCORED</text>
  </g>

  <!-- Description -->
  <text x="76" y="316" font-family="Georgia, 'Times New Roman', serif" font-size="22" font-style="italic" fill="#211c17">Turn any YouTube video into a VLM-ready context pack —</text>
  <text x="76" y="346" font-family="Georgia, 'Times New Roman', serif" font-size="22" font-style="italic" fill="#6d6457">timed transcript, the frames that matter, executable cinematic grammar.</text>

  <!-- Colophon -->
  <line x1="76" y1="366" x2="1204" y2="366" stroke="#c5ba9f" stroke-width="1"/>
  <text x="76" y="388" font-family="'Courier New', monospace" font-size="11" letter-spacing="2.5" fill="#6d6457">CLI · MCP SERVER · WEB — ONE PIPELINE</text>
  <text x="1204" y="388" text-anchor="end" font-family="'Courier New', monospace" font-size="11" letter-spacing="2.5" fill="#6d6457">OPEN SOURCE · MIT</text>
</svg>
